<?xml version="1.0" encoding="UTF-8"?>
<svg version="1.1" xmlns="http://www.w3.org/2000/svg" width="91" height="91">
<path d="M0 0 C9.91549426 7.06236802 17.48826117 17.04288334 20.125 29.0625 C21.4334855 44.02255009 19.50573186 55.98756317 10.125 68.0625 C3.04317389 76.07614533 -6.93551985 83.28060555 -17.89868164 84.23950195 C-33.7968399 84.69549986 -45.29976976 82.52433138 -57.5625 71.6875 C-68.72966922 59.01125386 -71.7054996 47.95725853 -71.05419922 31.34423828 C-70.22768178 20.82021653 -63.64298581 10.9057256 -55.875 4.0625 C-39.69575093 -9.55087697 -18.00997844 -11.38866284 0 0 Z " fill="#074E25" transform="translate(70.875,6.9375)"/>
<path d="M0 0 C2.64 0 5.28 0 8 0 C7.85978195 2.64624284 7.71310224 5.29184578 7.5625 7.9375 C7.50352539 9.06961914 7.50352539 9.06961914 7.44335938 10.22460938 C7.11328125 15.88671875 7.11328125 15.88671875 6 17 C5.77486899 18.33802186 5.60639193 19.68573023 5.46484375 21.03515625 C5.33432617 22.24848633 5.33432617 22.24848633 5.20117188 23.48632812 C5.0706543 24.7615332 5.0706543 24.7615332 4.9375 26.0625 C4.84662109 26.91650391 4.75574219 27.77050781 4.66210938 28.65039062 C4.43749278 30.76651535 4.21824773 32.88320894 4 35 C8.29 35 12.58 35 17 35 C18.32 26.42 19.64 17.84 21 9 C17.7 9 14.4 9 11 9 C11.33 6.03 11.66 3.06 12 0 C20.91 0 29.82 0 39 0 C39 2.97 39 5.94 39 9 C35.7 9 32.4 9 29 9 C28.34 16.59 27.68 24.18 27 32 C26.34 32 25.68 32 25 32 C24.67 36.29 24.34 40.58 24 45 C14.43 45 4.86 45 -5 45 C-3.55267002 29.97003485 -1.84641332 14.98591977 0 0 Z " fill="#F8FAF9" transform="translate(34,23)"/>
<path d="M0 0 C2.31 0 4.62 0 7 0 C5.35 14.85 3.7 29.7 2 45 C-0.64 45 -3.28 45 -6 45 C-5.42246987 35.17058917 -4.38002439 25.5001723 -3 15.75 C-2.82210938 14.44675781 -2.64421875 13.14351562 -2.4609375 11.80078125 C-1.1308171 2.2616342 -1.1308171 2.2616342 0 0 Z " fill="#FBFCFB" transform="translate(25,23)"/>
<path d="M0 0 C0.66 0.33 1.32 0.66 2 1 C1.58865229 10.64539463 0.70024257 20.17118271 -0.5 29.75 C-0.63059814 30.79736328 -0.76119629 31.84472656 -0.89575195 32.92382812 C-1.42534372 37.0425025 -1.99104911 40.96419646 -3 45 C6.57 45 16.14 45 26 45 C26.33 40.71 26.66 36.42 27 32 C27.33 32 27.66 32 28 32 C28.0861953 36.99932751 27.8372965 40.97622101 27 46 C16.77 46 6.54 46 -4 46 C-6.52984438 35.88062247 -3.70926643 23.94942863 -2.5 13.6875 C-2.36948242 12.57157471 -2.23896484 11.45564941 -2.10449219 10.3059082 C-1.97719727 9.26007568 -1.84990234 8.21424316 -1.71875 7.13671875 C-1.60466797 6.19530029 -1.49058594 5.25388184 -1.37304688 4.28393555 C-1 2 -1 2 0 0 Z " fill="#7E9E89" transform="translate(32,23)"/>
<path d="M0 0 C0.66 0 1.32 0 2 0 C2.3690205 14.78132118 2.3690205 14.78132118 0 21 C-0.33 21 -0.66 21 -1 21 C-1.09733092 13.90565767 -1.10087193 7.01805857 0 0 Z " fill="#588065" transform="translate(29,42)"/>
</svg>
